<mxfile host="app.diagrams.net" agent="Mozilla/5.0 (Windows NT 10.0; Win64; x64) AppleWebKit/537.36 (KHTML, like Gecko) Chrome/131.0.0.0 Safari/537.36" version="25.0.0">
  <diagram name="Страница — 1" id="_5Ttng5jZSXxkfVq3wSa">
    <mxGraphModel dx="1615" dy="811" grid="1" gridSize="10" guides="1" tooltips="1" connect="1" arrows="1" fold="1" page="1" pageScale="1" pageWidth="827" pageHeight="1169" math="0" shadow="0">
      <root>
        <mxCell id="0" />
        <mxCell id="1" parent="0" />
        <mxCell id="6y4FmE7P2vE9VgmpyNL5-1" value="" style="ellipse;html=1;shape=startState;fillColor=#000000;strokeColor=#ff0000;" vertex="1" parent="1">
          <mxGeometry x="320" y="20" width="30" height="30" as="geometry" />
        </mxCell>
        <mxCell id="6y4FmE7P2vE9VgmpyNL5-2" value="" style="edgeStyle=orthogonalEdgeStyle;html=1;verticalAlign=bottom;endArrow=open;endSize=8;strokeColor=#ff0000;rounded=0;" edge="1" source="6y4FmE7P2vE9VgmpyNL5-1" parent="1">
          <mxGeometry relative="1" as="geometry">
            <mxPoint x="335" y="110" as="targetPoint" />
          </mxGeometry>
        </mxCell>
        <mxCell id="6y4FmE7P2vE9VgmpyNL5-9" value="" style="edgeStyle=orthogonalEdgeStyle;rounded=0;orthogonalLoop=1;jettySize=auto;html=1;" edge="1" parent="1" source="6y4FmE7P2vE9VgmpyNL5-3" target="6y4FmE7P2vE9VgmpyNL5-4">
          <mxGeometry relative="1" as="geometry" />
        </mxCell>
        <mxCell id="6y4FmE7P2vE9VgmpyNL5-3" value="Создано" style="rounded=1;whiteSpace=wrap;html=1;" vertex="1" parent="1">
          <mxGeometry x="275" y="120" width="120" height="60" as="geometry" />
        </mxCell>
        <mxCell id="6y4FmE7P2vE9VgmpyNL5-10" style="edgeStyle=orthogonalEdgeStyle;rounded=0;orthogonalLoop=1;jettySize=auto;html=1;entryX=0.5;entryY=0;entryDx=0;entryDy=0;" edge="1" parent="1" source="6y4FmE7P2vE9VgmpyNL5-4" target="6y4FmE7P2vE9VgmpyNL5-5">
          <mxGeometry relative="1" as="geometry" />
        </mxCell>
        <mxCell id="6y4FmE7P2vE9VgmpyNL5-11" style="edgeStyle=orthogonalEdgeStyle;rounded=0;orthogonalLoop=1;jettySize=auto;html=1;exitX=1;exitY=0.5;exitDx=0;exitDy=0;entryX=0.5;entryY=0;entryDx=0;entryDy=0;" edge="1" parent="1" source="6y4FmE7P2vE9VgmpyNL5-4" target="6y4FmE7P2vE9VgmpyNL5-6">
          <mxGeometry relative="1" as="geometry" />
        </mxCell>
        <mxCell id="6y4FmE7P2vE9VgmpyNL5-4" value="Ожидание оплаты" style="rounded=1;whiteSpace=wrap;html=1;" vertex="1" parent="1">
          <mxGeometry x="275" y="250" width="120" height="60" as="geometry" />
        </mxCell>
        <mxCell id="6y4FmE7P2vE9VgmpyNL5-12" style="edgeStyle=orthogonalEdgeStyle;rounded=0;orthogonalLoop=1;jettySize=auto;html=1;exitX=0.5;exitY=1;exitDx=0;exitDy=0;entryX=0.5;entryY=0;entryDx=0;entryDy=0;" edge="1" parent="1" source="6y4FmE7P2vE9VgmpyNL5-5" target="6y4FmE7P2vE9VgmpyNL5-7">
          <mxGeometry relative="1" as="geometry" />
        </mxCell>
        <mxCell id="6y4FmE7P2vE9VgmpyNL5-5" value="Оплачено" style="rounded=1;whiteSpace=wrap;html=1;" vertex="1" parent="1">
          <mxGeometry x="145" y="360" width="120" height="60" as="geometry" />
        </mxCell>
        <mxCell id="6y4FmE7P2vE9VgmpyNL5-23" style="edgeStyle=orthogonalEdgeStyle;rounded=0;orthogonalLoop=1;jettySize=auto;html=1;exitX=0.5;exitY=1;exitDx=0;exitDy=0;entryX=0.5;entryY=0;entryDx=0;entryDy=0;" edge="1" parent="1" source="6y4FmE7P2vE9VgmpyNL5-6" target="6y4FmE7P2vE9VgmpyNL5-21">
          <mxGeometry relative="1" as="geometry" />
        </mxCell>
        <mxCell id="6y4FmE7P2vE9VgmpyNL5-6" value="Отменено" style="rounded=1;whiteSpace=wrap;html=1;" vertex="1" parent="1">
          <mxGeometry x="414" y="360" width="120" height="60" as="geometry" />
        </mxCell>
        <mxCell id="6y4FmE7P2vE9VgmpyNL5-13" style="edgeStyle=orthogonalEdgeStyle;rounded=0;orthogonalLoop=1;jettySize=auto;html=1;entryX=0.5;entryY=0;entryDx=0;entryDy=0;" edge="1" parent="1" source="6y4FmE7P2vE9VgmpyNL5-7" target="6y4FmE7P2vE9VgmpyNL5-8">
          <mxGeometry relative="1" as="geometry" />
        </mxCell>
        <mxCell id="6y4FmE7P2vE9VgmpyNL5-7" value="Принято" style="rounded=1;whiteSpace=wrap;html=1;" vertex="1" parent="1">
          <mxGeometry x="145" y="500" width="120" height="60" as="geometry" />
        </mxCell>
        <mxCell id="6y4FmE7P2vE9VgmpyNL5-8" value="" style="ellipse;html=1;shape=endState;fillColor=#000000;strokeColor=#ff0000;" vertex="1" parent="1">
          <mxGeometry x="190" y="620" width="30" height="30" as="geometry" />
        </mxCell>
        <mxCell id="6y4FmE7P2vE9VgmpyNL5-14" value="create()" style="text;html=1;align=center;verticalAlign=middle;resizable=0;points=[];autosize=1;strokeColor=none;fillColor=none;" vertex="1" parent="1">
          <mxGeometry x="270" y="60" width="60" height="30" as="geometry" />
        </mxCell>
        <mxCell id="6y4FmE7P2vE9VgmpyNL5-15" value="sendRequest()" style="text;html=1;align=center;verticalAlign=middle;resizable=0;points=[];autosize=1;strokeColor=none;fillColor=none;" vertex="1" parent="1">
          <mxGeometry x="230" y="200" width="100" height="30" as="geometry" />
        </mxCell>
        <mxCell id="6y4FmE7P2vE9VgmpyNL5-16" value="makePayment()" style="text;html=1;align=center;verticalAlign=middle;resizable=0;points=[];autosize=1;strokeColor=none;fillColor=none;" vertex="1" parent="1">
          <mxGeometry x="100" y="280" width="110" height="30" as="geometry" />
        </mxCell>
        <mxCell id="6y4FmE7P2vE9VgmpyNL5-17" value="cancel()" style="text;html=1;align=center;verticalAlign=middle;resizable=0;points=[];autosize=1;strokeColor=none;fillColor=none;" vertex="1" parent="1">
          <mxGeometry x="474" y="280" width="70" height="30" as="geometry" />
        </mxCell>
        <mxCell id="6y4FmE7P2vE9VgmpyNL5-18" value="verify()" style="text;html=1;align=center;verticalAlign=middle;resizable=0;points=[];autosize=1;strokeColor=none;fillColor=none;" vertex="1" parent="1">
          <mxGeometry x="145" y="450" width="60" height="30" as="geometry" />
        </mxCell>
        <mxCell id="6y4FmE7P2vE9VgmpyNL5-19" value="finishRequest()" style="text;html=1;align=center;verticalAlign=middle;resizable=0;points=[];autosize=1;strokeColor=none;fillColor=none;" vertex="1" parent="1">
          <mxGeometry x="105" y="569" width="100" height="30" as="geometry" />
        </mxCell>
        <mxCell id="6y4FmE7P2vE9VgmpyNL5-20" value="terminateRequest()" style="text;html=1;align=center;verticalAlign=middle;resizable=0;points=[];autosize=1;strokeColor=none;fillColor=none;" vertex="1" parent="1">
          <mxGeometry x="474" y="430" width="130" height="30" as="geometry" />
        </mxCell>
        <mxCell id="6y4FmE7P2vE9VgmpyNL5-21" value="" style="ellipse;html=1;shape=endState;fillColor=#000000;strokeColor=#ff0000;" vertex="1" parent="1">
          <mxGeometry x="459" y="470" width="30" height="30" as="geometry" />
        </mxCell>
      </root>
    </mxGraphModel>
  </diagram>
</mxfile>
